<svg width="204" height="201" viewBox="0 0 204 201" fill="none" xmlns="http://www.w3.org/2000/svg">
<g id="Group 1">
<path id="Vector" d="M8.85041 140.915C8.85041 140.915 -22.2253 71.8492 32.0842 25.857C32.0842 25.857 64.2796 -4.82062 118.815 0.654443C118.815 0.654443 154.545 4.30624 174.986 31.497V56.8933C174.986 56.8933 154.075 42.777 133.164 63.0816C133.164 63.0816 109.93 36.0105 77.402 65.3346C77.402 65.3346 40.2284 33.7525 12.3463 74.3466C12.336 74.3616 -0.441045 98.0506 8.85041 140.915Z" fill="url(#paint0_linear_269_10)"/>
<path id="Vector_2" d="M27.4386 170.241V89.0255C27.4386 89.0255 27.4386 70.9764 46.0267 68.7209C46.0267 68.7209 64.6122 68.7209 66.9376 82.2564V117.531L85.7783 117.804V84.8799C85.7783 84.8799 89.1041 68.7209 107.063 68.7209C107.063 68.7209 122.697 70.9739 125.022 84.5145V118.627L135.398 118.658C135.398 118.658 135.398 111.356 139.159 109.531C139.159 109.531 143.054 111.66 142.92 118.658L166.828 118.355C166.828 118.355 184.633 119.481 190.062 98.05C190.062 98.05 195.917 77.3258 192.383 59.6964C192.383 59.6964 204 77.3258 204 118.355C204 118.355 204 164.95 147.023 192.333C147.023 192.333 120.695 205.112 77.4427 199.635C77.4427 199.635 37.9514 195.984 27.4386 170.241Z" fill="url(#paint1_linear_269_10)"/>
<path id="Vector_3" d="M159.872 102.563C168.854 102.563 176.135 95.4932 176.135 86.7721C176.135 78.0509 168.854 70.9811 159.872 70.9811C150.891 70.9811 143.61 78.0509 143.61 86.7721C143.61 95.4932 150.891 102.563 159.872 102.563Z" fill="url(#paint2_linear_269_10)"/>
</g>
<defs>
<linearGradient id="paint0_linear_269_10" x1="87.4928" y1="0" x2="95.3678" y2="128.529" gradientUnits="userSpaceOnUse">
<stop stop-color="white"/>
</linearGradient>
<linearGradient id="paint1_linear_269_10" x1="115.719" y1="59.6964" x2="123.567" y2="188.585" gradientUnits="userSpaceOnUse">
<stop offset="1" stop-color="white"/>
</linearGradient>
<linearGradient id="paint2_linear_269_10" x1="159.872" y1="70.9811" x2="161.997" y2="99.7382" gradientUnits="userSpaceOnUse">
<stop stop-color="white"/>
</linearGradient>
</defs>
</svg>
