<svg width="18" height="18" viewBox="0 0 18 18" fill="none" xmlns="http://www.w3.org/2000/svg">
<g id="settings (2) 1">
<g id="g117">
<g id="g119">
<g id="Clip path group">
<mask id="mask0_104_7165" style="mask-type:luminance" maskUnits="userSpaceOnUse" x="0" y="0" width="18" height="18">
<g id="clipPath125">
<path id="path123" d="M0 0H18V18H0V0Z" fill="white"/>
</g>
</mask>
<g mask="url(#mask0_104_7165)">
<g id="g121">
<g id="g127">
<path id="path129 (Stroke)" fill-rule="evenodd" clip-rule="evenodd" d="M6.77813 16.3429C6.77813 17.2581 7.52 18 8.43515 18H9.56482C10.4799 18 11.2219 17.2581 11.2219 16.3429V15.9608C11.6134 15.8357 11.9906 15.6785 12.3503 15.4924C12.4315 15.5736 12.5244 15.6666 12.6209 15.763C12.9319 16.0744 13.3537 16.2487 13.793 16.2487C14.2319 16.2487 14.6537 16.0744 14.9646 15.7632C14.9646 15.7632 14.9647 15.7631 14.9648 15.763L15.763 14.9648C15.7631 14.9647 15.7632 14.9646 15.7632 14.9646C16.0744 14.6537 16.2487 14.2319 16.2487 13.793C16.2487 13.3537 16.0744 12.9319 15.763 12.6209C15.6666 12.5245 15.5736 12.4315 15.4924 12.3503C15.6785 11.9906 15.8357 11.6134 15.9608 11.2219H16.3429C17.2581 11.2219 18 10.48 18 9.56486V8.43514C18 7.52004 17.2581 6.77812 16.3429 6.77812H15.9608C15.8357 6.38657 15.6785 6.00939 15.4924 5.64969L15.763 5.3791C16.0744 5.06814 16.2487 4.64634 16.2487 4.20701C16.2487 3.76806 16.0744 3.34636 15.7633 3.03546C15.6776 2.94978 15.5888 2.86102 15.4991 2.77125L15.3639 2.63608C15.2285 2.50072 15.0932 2.36538 14.9648 2.23694C14.9647 2.23688 14.9647 2.23681 14.9646 2.23675C14.6537 1.92562 14.232 1.75127 13.793 1.75127C13.3537 1.75127 12.932 1.92559 12.6211 2.23672C12.5246 2.33325 12.4316 2.42628 12.3503 2.50757C11.9906 2.32143 11.6134 2.16428 11.2219 2.03918V1.65702C11.2219 0.741871 10.4799 0 9.56482 0H8.43515C7.52002 0 6.77813 0.741892 6.77813 1.65702V2.03918C6.38659 2.16428 6.0094 2.32144 5.6497 2.50758C5.56842 2.42629 5.47539 2.33325 5.37886 2.23672C5.06795 1.92557 4.64623 1.75127 4.20701 1.75127C3.76803 1.75127 3.34627 1.9256 3.03541 2.23675C3.0354 2.23677 3.03538 2.23679 3.03536 2.23681C3.0353 2.23686 3.03525 2.23692 3.03519 2.23697C2.86311 2.40908 2.67862 2.59356 2.49832 2.77385L2.23694 3.03522C2.23687 3.0353 2.2368 3.03537 2.23673 3.03544C1.92562 3.3463 1.75127 3.768 1.75127 4.20701C1.75127 4.64637 1.92566 5.06815 2.23694 5.37907C2.33339 5.47552 2.42635 5.56848 2.50758 5.6497C2.32144 6.0094 2.16429 6.38659 2.03919 6.77812H1.65705C0.741939 6.77812 0 7.52004 0 8.43514V9.56486C0 10.48 0.741938 11.2219 1.65705 11.2219H2.0392C2.1643 11.6134 2.32144 11.9906 2.50758 12.3503C2.42634 12.4315 2.33337 12.5245 2.23691 12.6209C2.23686 12.621 2.2368 12.621 2.23675 12.6211C1.9256 12.932 1.75127 13.3537 1.75127 13.793C1.75127 14.2321 1.9257 14.6539 2.23694 14.9648C2.4883 15.2161 2.7661 15.4939 3.01859 15.7464L3.03516 15.763C3.03521 15.763 3.03526 15.7631 3.03531 15.7631C3.03535 15.7632 3.0354 15.7632 3.03544 15.7632C3.34633 16.0744 3.76809 16.2487 4.20701 16.2487C4.64629 16.2487 5.06814 16.0744 5.37911 15.763L5.64969 15.4924C6.00938 15.6785 6.38658 15.8357 6.77813 15.9608V16.3429ZM5.55754 14.8388C5.18465 14.4659 5.18465 14.4659 5.18464 14.4659L5.1846 14.4659L4.63308 15.0175L4.63283 15.0177C4.52017 15.1305 4.367 15.194 4.20701 15.194C4.04734 15.194 3.89414 15.1306 3.78149 15.0177L3.76436 15.0006C3.51182 14.7481 3.23391 14.4702 2.98248 14.2188L2.98229 14.2186C2.8694 14.1058 2.80596 13.9526 2.80596 13.793C2.80596 13.633 2.86944 13.4798 2.98232 13.3671L2.98248 13.3669C3.12837 13.221 3.26627 13.0831 3.36771 12.9817L3.53391 12.8155L3.53406 12.8154L3.53409 12.8153C3.53409 12.8153 3.5341 12.8153 3.16122 12.4424L3.53409 12.8153C3.70432 12.6451 3.73767 12.3812 3.61511 12.174C3.32111 11.6769 3.09416 11.1356 2.94627 10.5627C2.88616 10.3299 2.67614 10.1672 2.43566 10.1672H1.65705C1.32441 10.1672 1.05469 9.89745 1.05469 9.56486V8.43514C1.05469 8.10255 1.3244 7.83281 1.65705 7.83281H2.43566C2.67614 7.83281 2.88617 7.67012 2.94627 7.43726C3.09415 6.86432 3.32111 6.32311 3.61512 5.82598C3.73767 5.61876 3.70433 5.35485 3.53408 5.18462L3.50392 5.21478C3.53408 5.18462 3.53408 5.18462 3.53408 5.18462L3.53403 5.18457L3.53389 5.18443L3.3677 5.01826C3.26627 4.91684 3.12838 4.77895 2.9825 4.63308L2.98229 4.63286C2.86944 4.52015 2.80596 4.36699 2.80596 4.20701C2.80596 4.04741 2.8694 3.89419 2.98229 3.78143L2.9825 3.78122C3.06929 3.69443 3.15924 3.60448 3.25021 3.51351C3.42864 3.33509 3.61103 3.15272 3.78124 2.98248L3.78146 2.98225C3.89415 2.86942 4.04738 2.80596 4.20701 2.80596C4.36696 2.80596 4.52016 2.86945 4.63286 2.98228L4.63308 2.9825C4.77895 3.12838 4.91684 3.26627 5.01826 3.3677L5.18443 3.53389L5.18457 3.53403L5.18461 3.53407C5.18461 3.53407 5.18462 3.53408 5.55754 3.16122L5.18461 3.53407C5.35483 3.70432 5.61876 3.73767 5.82598 3.61512C6.32312 3.3211 6.86436 3.09412 7.43725 2.94627C7.67011 2.88618 7.83281 2.67615 7.83281 2.43566V1.65702C7.83281 1.32438 8.10251 1.05469 8.43515 1.05469H9.56482C9.89748 1.05469 10.1672 1.3244 10.1672 1.65702V2.43566C10.1672 2.67615 10.3299 2.88618 10.5628 2.94627C11.1356 3.09412 11.6769 3.3211 12.174 3.61512C12.3813 3.73768 12.6452 3.70432 12.8154 3.53405L12.8162 3.5333L12.9817 3.36768C13.0365 3.31294 13.1018 3.24757 13.1733 3.17606C13.2343 3.11508 13.2997 3.04964 13.3669 2.9825L13.3671 2.98232C13.4798 2.86944 13.633 2.80596 13.793 2.80596C13.9526 2.80596 14.1058 2.86941 14.2186 2.98228L14.2188 2.98248C14.3473 3.111 14.4827 3.24644 14.6181 3.38186C14.7535 3.51728 14.889 3.65269 15.0174 3.78119L15.0177 3.78146C15.1306 3.89418 15.194 4.04737 15.194 4.20701C15.194 4.36702 15.1305 4.52016 15.0177 4.63283L15.0175 4.63308L14.4659 5.18463C14.4659 5.18464 14.4659 5.18465 14.8388 5.55754L14.4659 5.18463C14.2957 5.35485 14.2623 5.61875 14.3849 5.82596C14.6789 6.32311 14.9058 6.86434 15.0537 7.43726C15.1138 7.67012 15.3239 7.83281 15.5643 7.83281H16.3429C16.6756 7.83281 16.9453 8.10255 16.9453 8.43514V9.56486C16.9453 9.89745 16.6756 10.1672 16.3429 10.1672H15.5643C15.3239 10.1672 15.1138 10.3299 15.0537 10.5627C14.9058 11.1356 14.6789 11.6769 14.3849 12.174C14.2623 12.3812 14.2957 12.6451 14.4659 12.8153L14.8388 12.4424C14.4659 12.8153 14.4659 12.8153 14.4659 12.8153L14.4659 12.8153L14.4661 12.8155L14.6323 12.9817C14.7337 13.0831 14.8716 13.221 15.0175 13.3669L15.0177 13.3671C15.1305 13.4798 15.194 13.633 15.194 13.793C15.194 13.9526 15.1306 14.1058 15.0177 14.2185L15.0175 14.2188L14.9261 14.3102C14.9051 14.3312 14.9409 14.2953 14.9199 14.3163L14.3287 14.9076C14.3184 14.9179 14.3359 14.9003 14.3256 14.9106L14.2185 15.0177C14.1058 15.1306 13.9526 15.194 13.793 15.194C13.633 15.194 13.4798 15.1305 13.3671 15.0177L13.3669 15.0175C13.221 14.8716 13.0831 14.7337 12.9817 14.6323L12.8156 14.4661L12.8154 14.466L12.8154 14.4659C12.8154 14.4659 12.8154 14.4659 12.4425 14.8388L12.8154 14.4659C12.6452 14.2957 12.3813 14.2623 12.174 14.3849C11.6769 14.6789 11.1356 14.9059 10.5628 15.0537C10.3299 15.1138 10.1672 15.3238 10.1672 15.5643V16.3429C10.1672 16.6756 9.89746 16.9453 9.56482 16.9453H8.43515C8.10253 16.9453 7.83281 16.6756 7.83281 16.3429V15.5643C7.83281 15.3238 7.67009 15.1138 7.43722 15.0537C6.86437 14.9059 6.32313 14.6789 5.82596 14.3849C5.61875 14.2623 5.35486 14.2957 5.18464 14.4659L5.55754 14.8388Z" fill="white" fill-opacity="0.75"/>
</g>
<g id="g131">
<path id="path133 (Stroke)" fill-rule="evenodd" clip-rule="evenodd" d="M4.90918 9C4.90918 11.258 6.74203 13.0909 9.00009 13.0909C11.2581 13.0909 13.091 11.258 13.091 9C13.091 6.74195 11.2581 4.90909 9.00009 4.90909C6.74204 4.90909 4.90918 6.74195 4.90918 9ZM9.00009 11.9892C7.35048 11.9892 6.01086 10.6496 6.01086 9C6.01086 7.35039 7.35048 6.01077 9.00009 6.01077C10.6497 6.01077 11.9893 7.35039 11.9893 9C11.9893 10.6496 10.6497 11.9892 9.00009 11.9892Z" fill="white" fill-opacity="0.75"/>
</g>
</g>
</g>
</g>
</g>
</g>
</g>
</svg>
