<svg width="18" height="18" viewBox="0 0 18 18" fill="none" xmlns="http://www.w3.org/2000/svg">
<g id="g2322">
<g id="g2324">
<g id="Clip path group">
<mask id="mask0_536_2103" style="mask-type:luminance" maskUnits="userSpaceOnUse" x="0" y="0" width="18" height="18">
<g id="clipPath2330">
<path id="path2328" d="M0 0H18V18H0V0Z" fill="white"/>
</g>
</mask>
<g mask="url(#mask0_536_2103)">
<g id="g2326">
<g id="g2332">
<path id="path2334 (Stroke)" fill-rule="evenodd" clip-rule="evenodd" d="M1.08984 17.4727H2.14453V12.6562H3.19922V17.4727H4.25391V11.6016H1.08984V17.4727Z" fill="white" fill-opacity="0.75"/>
</g>
<g id="g2336">
<path id="path2338 (Stroke)" fill-rule="evenodd" clip-rule="evenodd" d="M9.52734 17.4727H10.582V11.6016H11.6367V17.4727H12.6914V10.5469H9.52734V17.4727Z" fill="white" fill-opacity="0.75"/>
</g>
<g id="g2340">
<path id="path2342 (Stroke)" fill-rule="evenodd" clip-rule="evenodd" d="M5.30859 17.4727H6.36328V9.49219H7.41797V17.4727H8.47266V8.4375H5.30859V17.4727Z" fill="white" fill-opacity="0.75"/>
</g>
<g id="g2344">
<path id="path2346 (Stroke)" fill-rule="evenodd" clip-rule="evenodd" d="M13.7461 17.4727H14.8008V7.38281H15.8555V17.4727H16.9102V6.32812H13.7461V17.4727Z" fill="white" fill-opacity="0.75"/>
</g>
<g id="g2348">
<path id="path2350 (Stroke)" fill-rule="evenodd" clip-rule="evenodd" d="M18 16.9453H0V18H18V16.9453Z" fill="white" fill-opacity="0.75"/>
</g>
<g id="g2352">
<path id="path2354 (Stroke)" fill-rule="evenodd" clip-rule="evenodd" d="M6.88956 3.38157L11.1083 7.60032L17.8445 0.901367L17.1008 0.153527L11.1104 6.11083L6.89162 1.89208L0.155457 8.59103L0.899165 9.33887L6.88956 3.38157Z" fill="white" fill-opacity="0.75"/>
</g>
<g id="g2356">
<path id="path2358 (Stroke)" fill-rule="evenodd" clip-rule="evenodd" d="M18 4.21875V-4.76837e-07H13.7461V1.05469H16.9453V4.21875H18Z" fill="white" fill-opacity="0.75"/>
</g>
</g>
</g>
</g>
</g>
</g>
</svg>
