<svg width="18" height="18" viewBox="0 0 18 18" fill="none" xmlns="http://www.w3.org/2000/svg">
<g id="_x31_9">
<path id="Vector" d="M16.7834 10.21C16.3306 9.93896 15.7843 9.92981 15.3461 10.1666L10.588 12.4822C10.4353 11.7795 9.81037 11.2512 9.0625 11.2512H6.50879L5.44189 10.1843C5.32471 10.0671 5.16602 10.0012 5 10.0012H2.5V9.375C2.5 9.02954 2.22046 8.75 1.875 8.75H0.625C0.279541 8.75 0 9.02954 0 9.375C0 9.72046 0.279541 10 0.625 10H1.25V15.625H0.625C0.279541 15.625 0 15.9045 0 16.25C0 16.5955 0.279541 16.875 0.625 16.875H1.875C2.22046 16.875 2.5 16.5955 2.5 16.25V15.6256H3.60352L6.45935 17.041C7.07703 17.3474 7.72705 17.4976 8.36731 17.4976C9.25964 17.4976 10.1337 17.2058 10.8752 16.6364L16.8634 12.6752C17.262 12.4005 17.5 11.9495 17.5 11.4679C17.5 10.9473 17.2321 10.4773 16.7834 10.21ZM16.1646 11.6388L10.1501 15.6189C9.21448 16.3367 8.07068 16.4453 7.01477 15.9216L4.02771 14.4409C3.94104 14.3976 3.84644 14.3756 3.75 14.3756H2.5V11.2512H4.74121L5.80811 12.3181C5.92529 12.4353 6.08398 12.5012 6.25 12.5012H9.0625C9.23462 12.5012 9.375 12.6416 9.375 12.8137C9.375 12.9858 9.23462 13.1262 9.0625 13.1262H6.25C5.90454 13.1262 5.625 13.4058 5.625 13.7512C5.625 14.0967 5.90454 14.3762 6.25 14.3762H9.0625C9.10896 14.3762 9.15272 14.3665 9.19819 14.3625C9.34292 14.4057 9.50241 14.4013 9.64844 14.3298L15.9167 11.2787C16.0181 11.2238 16.1017 11.2585 16.1438 11.2836C16.1835 11.3068 16.25 11.3623 16.25 11.4679C16.25 11.5381 16.2146 11.604 16.1646 11.6388Z" fill="white" fill-opacity="0.75"/>
<path id="Vector_2" d="M10.625 1.875C10.625 0.841064 9.78394 0 8.75 0C7.71606 0 6.875 0.841064 6.875 1.875C6.875 2.90894 7.71606 3.75 8.75 3.75C9.78394 3.75 10.625 2.90894 10.625 1.875ZM8.75 2.5C8.40515 2.5 8.125 2.21985 8.125 1.875C8.125 1.53015 8.40515 1.25 8.75 1.25C9.09485 1.25 9.375 1.53015 9.375 1.875C9.375 2.21985 9.09485 2.5 8.75 2.5Z" fill="white" fill-opacity="0.75"/>
<path id="Vector_3" d="M5.625 5.625V6.875C5.625 7.22046 5.90454 7.5 6.25 7.5C6.59546 7.5 6.875 7.22046 6.875 6.875V5.625C6.875 5.28015 7.15515 5 7.5 5H10C10.3448 5 10.625 5.28015 10.625 5.625V6.875C10.625 7.22046 10.9045 7.5 11.25 7.5C11.5955 7.5 11.875 7.22046 11.875 6.875V5.625C11.875 4.59106 11.0339 3.75 10 3.75H8.75H7.5C6.46606 3.75 5.625 4.59106 5.625 5.625Z" fill="white" fill-opacity="0.75"/>
<path id="Vector_4" d="M15.625 1.875C15.625 0.841064 14.7839 0 13.75 0C12.7161 0 11.875 0.841064 11.875 1.875C11.875 2.90894 12.7161 3.75 13.75 3.75C14.7839 3.75 15.625 2.90894 15.625 1.875ZM13.75 2.5C13.4052 2.5 13.125 2.21985 13.125 1.875C13.125 1.53015 13.4052 1.25 13.75 1.25C14.0948 1.25 14.375 1.53015 14.375 1.875C14.375 2.21985 14.0948 2.5 13.75 2.5Z" fill="white" fill-opacity="0.75"/>
<path id="Vector_5" d="M11.875 4.375C11.875 4.72046 12.1545 5 12.5 5H15C15.3448 5 15.625 5.28015 15.625 5.625V6.875C15.625 7.22046 15.9045 7.5 16.25 7.5C16.5955 7.5 16.875 7.22046 16.875 6.875V5.625C16.875 4.59106 16.0339 3.75 15 3.75H13.75H12.5C12.1545 3.75 11.875 4.02954 11.875 4.375Z" fill="white" fill-opacity="0.75"/>
<path id="Vector_6" d="M5.625 1.875C5.625 0.841064 4.78394 0 3.75 0C2.71606 0 1.875 0.841064 1.875 1.875C1.875 2.90894 2.71606 3.75 3.75 3.75C4.78394 3.75 5.625 2.90894 5.625 1.875ZM3.75 2.5C3.40515 2.5 3.125 2.21985 3.125 1.875C3.125 1.53015 3.40515 1.25 3.75 1.25C4.09485 1.25 4.375 1.53015 4.375 1.875C4.375 2.21985 4.09485 2.5 3.75 2.5Z" fill="white" fill-opacity="0.75"/>
<path id="Vector_7" d="M1.25 7.5C1.59546 7.5 1.875 7.22046 1.875 6.875V5.625C1.875 5.28015 2.15515 5 2.5 5H5C5.34546 5 5.625 4.72046 5.625 4.375C5.625 4.02954 5.34546 3.75 5 3.75H3.75H2.5C1.46606 3.75 0.625 4.59106 0.625 5.625V6.875C0.625 7.22046 0.904541 7.5 1.25 7.5Z" fill="white" fill-opacity="0.75"/>
</g>
</svg>
