<svg width="18" height="18" viewBox="0 0 18 18" fill="none" xmlns="http://www.w3.org/2000/svg">
<g id="layer1">
<path id="path2171" d="M7.71432 0C5.59167 0 3.85718 1.73452 3.85718 3.85715C3.85718 5.97979 5.59167 7.71431 7.71432 7.71431C9.83697 7.71431 11.5715 5.97979 11.5715 3.85715C11.5715 1.73452 9.83697 0 7.71432 0ZM7.71432 1.28572C9.1421 1.28572 10.2857 2.42937 10.2857 3.85715C10.2857 5.28493 9.1421 6.42859 7.71432 6.42859C6.28653 6.42859 5.14289 5.28493 5.14289 3.85715C5.14289 2.42937 6.28653 1.28572 7.71432 1.28572Z" fill="white"/>
<path id="path2173" d="M5.78571 9C2.59155 9 0 11.5916 0 14.7857V16.0715C1.70295e-05 16.2419 0.0677519 16.4054 0.188307 16.526C0.308862 16.6466 0.472366 16.7143 0.642857 16.7143H7.61637C7.70156 16.7155 7.78613 16.6998 7.86518 16.668C7.94423 16.6362 8.01618 16.5891 8.07685 16.5293C8.13751 16.4695 8.18569 16.3982 8.21857 16.3196C8.25145 16.241 8.26838 16.1566 8.26838 16.0715C8.26838 15.9863 8.25145 15.9019 8.21857 15.8233C8.18569 15.7447 8.13751 15.6735 8.07685 15.6136C8.01618 15.5538 7.94423 15.5067 7.86518 15.4749C7.78613 15.4431 7.70156 15.4274 7.61637 15.4286H1.28571V14.7857C1.28571 12.2816 3.28159 10.2857 5.78571 10.2857H8.36716C8.45235 10.2869 8.53693 10.2712 8.61598 10.2394C8.69503 10.2077 8.76698 10.1605 8.82764 10.1007C8.88831 10.0409 8.93648 9.96959 8.96936 9.891C9.00224 9.8124 9.01917 9.72806 9.01917 9.64286C9.01917 9.55767 9.00224 9.47332 8.96936 9.39473C8.93648 9.31613 8.88831 9.24486 8.82764 9.18504C8.76698 9.12523 8.69503 9.07807 8.61598 9.0463C8.53693 9.01454 8.45235 8.9988 8.36716 9H5.78571Z" fill="white"/>
<path id="path2175" d="M13.4915 9.00001C13.133 9.0058 12.8501 9.29712 12.855 9.65163V10.351C12.4458 10.4353 12.0646 10.5997 11.7275 10.8243L11.234 10.3309C11.0825 10.175 10.9105 10.1163 10.7481 10.125C10.2612 10.151 9.85739 10.7854 10.3249 11.2399L10.8209 11.7358C10.5975 12.0734 10.4332 12.4541 10.3501 12.8633H9.652C8.78267 12.851 8.78267 14.1613 9.652 14.149H10.3526C10.4367 14.5543 10.6003 14.9317 10.8222 15.2664L10.3224 15.7661C9.69906 16.3721 10.6255 17.2985 11.2315 16.6751L11.73 16.1766C12.0666 16.4004 12.4467 16.5646 12.855 16.6487V17.3481C12.8428 18.2174 14.1529 18.2174 14.1406 17.3481V16.65C14.5485 16.5666 14.9279 16.4019 15.2643 16.1792L15.7666 16.6814C16.0193 16.9413 16.4375 16.9413 16.6869 16.6839C16.9363 16.4264 16.93 16.0197 16.6753 15.7724L16.1756 15.2727C16.3995 14.9367 16.5632 14.5567 16.6477 14.149H17.3483C17.7107 14.1542 18.0055 13.8584 17.9999 13.4999C17.9935 13.1415 17.7028 12.8585 17.3483 12.8634H16.6502C16.5666 12.4519 16.4023 12.0685 16.1769 11.7296L16.6728 11.2337C16.9327 10.9811 16.9327 10.5629 16.6728 10.3134C16.5447 10.1893 16.3798 10.1285 16.2158 10.1301C16.0519 10.1333 15.8893 10.1982 15.7663 10.3247L15.269 10.8219C14.932 10.5983 14.5517 10.4333 14.1428 10.3498V9.6517C14.1492 9.28931 13.8521 8.99448 13.4937 9.00008L13.4915 9.00001ZM13.5005 11.5714C14.5733 11.5714 15.429 12.4272 15.429 13.4998C15.429 14.5725 14.5733 15.4284 13.5005 15.4284C12.4277 15.4284 11.572 14.5725 11.572 13.4998C11.572 12.4272 12.4277 11.5714 13.5005 11.5714Z" fill="white"/>
</g>
</svg>
