<svg width="18" height="18" viewBox="0 0 18 18" fill="none" xmlns="http://www.w3.org/2000/svg">
<g id="Group 4821">
<path id="Vector" d="M9 0C7.21997 0 5.47991 0.527841 3.99987 1.51677C2.51983 2.50571 1.36628 3.91131 0.685088 5.55585C0.00389959 7.20038 -0.17433 9.00998 0.172936 10.7558C0.520203 12.5016 1.37737 14.1053 2.63604 15.364C3.89472 16.6226 5.49836 17.4798 7.24419 17.8271C8.99002 18.1743 10.7996 17.9961 12.4442 17.3149C14.0887 16.6337 15.4943 15.4802 16.4832 14.0001C17.4722 12.5201 18 10.78 18 9C17.9972 6.61391 17.0481 4.32636 15.3609 2.63915C13.6736 0.95193 11.3861 0.00281493 9 0ZM9 16.3636C7.54361 16.3636 6.11993 15.9318 4.90899 15.1226C3.69804 14.3135 2.75423 13.1635 2.19689 11.8179C1.63955 10.4724 1.49373 8.99183 1.77786 7.56343C2.06199 6.13502 2.7633 4.82295 3.79313 3.79312C4.82295 2.7633 6.13502 2.06198 7.56343 1.77785C8.99183 1.49373 10.4724 1.63955 11.8179 2.19689C13.1635 2.75422 14.3135 3.69804 15.1226 4.90898C15.9318 6.11993 16.3636 7.54361 16.3636 9C16.3613 10.9522 15.5847 12.8238 14.2042 14.2042C12.8238 15.5847 10.9522 16.3613 9 16.3636Z" fill="white" fill-opacity="0.75"/>
<path id="Vector_2" d="M9.81813 8.66149V4.09113C9.81813 3.87414 9.73192 3.66603 9.57849 3.51259C9.42505 3.35915 9.21694 3.27295 8.99994 3.27295C8.78295 3.27295 8.57484 3.35915 8.4214 3.51259C8.26796 3.66603 8.18176 3.87414 8.18176 4.09113V9.00022C8.18181 9.2172 8.26804 9.42527 8.42149 9.57868L10.876 12.0332C11.0303 12.1823 11.237 12.2647 11.4515 12.2629C11.6661 12.261 11.8713 12.175 12.023 12.0233C12.1747 11.8716 12.2607 11.6663 12.2626 11.4518C12.2644 11.2373 12.182 11.0306 12.0329 10.8763L9.81813 8.66149Z" fill="white" fill-opacity="0.75"/>
</g>
</svg>
