<svg width="18" height="18" viewBox="0 0 18 18" fill="none" xmlns="http://www.w3.org/2000/svg">
<g id="Group 4818">
<g id="Group">
<g id="Group_2">
<path id="Vector" d="M16.9453 11.6928V1.58203C16.9453 0.709699 16.2356 0 15.3633 0H3.72656C2.85423 0 2.14453 0.709699 2.14453 1.58203V2.14453H1.58203C0.709699 2.14453 0 2.85423 0 3.72656C0 4.59889 0.709699 5.30859 1.58203 5.30859H2.14453V7.41797H1.58203C0.709699 7.41797 0 8.12767 0 9C0 9.87233 0.709699 10.582 1.58203 10.582H2.14453V12.6914H1.58203C0.709699 12.6914 0 13.4011 0 14.2734C0 15.1458 0.709699 15.8555 1.58203 15.8555H2.14453V16.3828C2.14453 16.8031 2.30614 17.2036 2.59959 17.5106C2.9013 17.8262 3.30156 18 3.72656 18H14.3086C16.344 18 18 16.3283 18 14.2734C18 13.27 17.5973 12.3589 16.9453 11.6928ZM1.58203 4.25391C1.29125 4.25391 1.05469 4.01734 1.05469 3.72656C1.05469 3.43579 1.29125 3.19922 1.58203 3.19922H2.67188C2.96265 3.19922 3.19922 3.43579 3.19922 3.72656C3.19922 4.01734 2.96265 4.25391 2.67188 4.25391H1.58203ZM1.58203 9.52734C1.29125 9.52734 1.05469 9.29078 1.05469 9C1.05469 8.70922 1.29125 8.47266 1.58203 8.47266H2.67188C2.96265 8.47266 3.19922 8.70922 3.19922 9C3.19922 9.29078 2.96265 9.52734 2.67188 9.52734H1.58203ZM2.67188 14.8008H1.58203C1.29125 14.8008 1.05469 14.5642 1.05469 14.2734C1.05469 13.9827 1.29125 13.7461 1.58203 13.7461H2.67188C2.96265 13.7461 3.19922 13.9827 3.19922 14.2734C3.19922 14.5642 2.96265 14.8008 2.67188 14.8008ZM3.72656 16.9453C3.44566 16.9453 3.19922 16.6824 3.19922 16.3828V15.7648C3.81301 15.5471 4.25391 14.9609 4.25391 14.2734C4.25391 13.586 3.81301 12.9998 3.19922 12.7821V10.4913C3.81301 10.2736 4.25391 9.68748 4.25391 9C4.25391 8.31252 3.81301 7.72636 3.19922 7.50867V5.21789C3.81301 5.0002 4.25391 4.41404 4.25391 3.72656C4.25391 3.03908 3.81301 2.45292 3.19922 2.23523V1.58203C3.19922 1.29125 3.43579 1.05469 3.72656 1.05469H15.3633C15.6541 1.05469 15.8906 1.29125 15.8906 1.58203V10.9387C15.4109 10.7102 14.8744 10.582 14.3086 10.582C12.2732 10.582 10.6172 12.238 10.6172 14.2734C10.6172 15.3204 11.0473 16.2677 11.7382 16.9453H3.72656ZM14.3086 16.9453C12.8547 16.9453 11.6719 15.7467 11.6719 14.2734C11.6719 12.8196 12.8547 11.6367 14.3086 11.6367C15.7625 11.6367 16.9453 12.8196 16.9453 14.2734C16.9453 15.7467 15.7625 16.9453 14.3086 16.9453Z" fill="white"/>
</g>
</g>
<g id="Group_3">
<g id="Group_4">
<path id="Vector_2" d="M14.4634 13.7461H13.936V13.2188C13.936 12.9275 13.6999 12.6914 13.4087 12.6914C13.1175 12.6914 12.8813 12.9275 12.8813 13.2188V14.2734C12.8813 14.5647 13.1175 14.8008 13.4087 14.8008H14.4634C14.7546 14.8008 14.9907 14.5647 14.9907 14.2734C14.9907 13.9822 14.7546 13.7461 14.4634 13.7461Z" fill="white"/>
</g>
</g>
<g id="Group_5">
<g id="Group_6">
<path id="Vector_3" d="M13.4087 4.25391H10.2446C9.95339 4.25391 9.71729 4.49002 9.71729 4.78125C9.71729 5.07248 9.95339 5.30859 10.2446 5.30859H13.4087C13.6999 5.30859 13.936 5.07248 13.936 4.78125C13.936 4.49002 13.6999 4.25391 13.4087 4.25391Z" fill="white"/>
</g>
</g>
<g id="Group_7">
<g id="Group_8">
<path id="Vector_4" d="M13.4087 8.47266H10.2446C9.95339 8.47266 9.71729 8.70877 9.71729 9C9.71729 9.29123 9.95339 9.52734 10.2446 9.52734H13.4087C13.6999 9.52734 13.936 9.29123 13.936 9C13.936 8.70877 13.6999 8.47266 13.4087 8.47266Z" fill="white"/>
</g>
</g>
<g id="Group_9">
<g id="Group_10">
<path id="Vector_5" d="M8.4728 3.35367C8.26689 3.14773 7.93297 3.14773 7.72706 3.35371L5.99056 5.09018L5.16048 4.26011C4.95457 4.05416 4.62066 4.05416 4.41471 4.26011C4.20877 4.46605 4.20877 4.79993 4.41471 5.00588L5.61769 6.20885C5.72063 6.31183 5.85559 6.36329 5.99056 6.36329C6.12552 6.36329 6.26049 6.31183 6.36342 6.20882L8.4728 4.09944C8.67874 3.8935 8.67874 3.55962 8.4728 3.35367Z" fill="white"/>
</g>
</g>
<g id="Group_11">
<g id="Group_12">
<path id="Vector_6" d="M8.4728 7.57242C8.26689 7.36648 7.93297 7.36648 7.72706 7.57246L5.99056 9.30893L5.16048 8.47886C4.95457 8.27291 4.62066 8.27291 4.41471 8.47886C4.20877 8.6848 4.20877 9.01868 4.41471 9.22463L5.61769 10.4276C5.72063 10.5306 5.85559 10.582 5.99056 10.582C6.12552 10.582 6.26049 10.5306 6.36342 10.4276L8.4728 8.31819C8.67874 8.11225 8.67874 7.77837 8.4728 7.57242Z" fill="white"/>
</g>
</g>
<g id="Group_13">
<g id="Group_14">
<path id="Vector_7" d="M8.4728 11.7912C8.26689 11.5852 7.93297 11.5852 7.72706 11.7912L5.99056 13.5277L5.16048 12.6976C4.95457 12.4917 4.62066 12.4917 4.41471 12.6976C4.20877 12.9036 4.20877 13.2374 4.41471 13.4434L5.61769 14.6464C5.72063 14.7493 5.85559 14.8008 5.99056 14.8008C6.12552 14.8008 6.26049 14.7493 6.36342 14.6463L8.4728 12.5369C8.67874 12.331 8.67874 11.9971 8.4728 11.7912Z" fill="white"/>
</g>
</g>
</g>
</svg>
