<svg width="18" height="18" viewBox="0 0 18 18" fill="none" xmlns="http://www.w3.org/2000/svg">
<g id="g1488">
<g id="g1490">
<g id="Clip path group">
<mask id="mask0_6_9959" style="mask-type:luminance" maskUnits="userSpaceOnUse" x="0" y="0" width="18" height="18">
<g id="clipPath1496">
<path id="path1494" d="M0 0H18V18H0V0Z" fill="white"/>
</g>
</mask>
<g mask="url(#mask0_6_9959)">
<g id="g1492">
<g id="g1498">
<path id="path1500 (Stroke)" fill-rule="evenodd" clip-rule="evenodd" d="M14.8498 3.15008V1.79254L16.2073 3.15008H14.8498ZM13.7998 3.67508C13.7998 3.96502 14.0349 4.20007 14.3248 4.20007H17.4748C17.6871 4.20007 17.8786 4.07216 17.9598 3.87598C18.0411 3.6798 17.9962 3.45399 17.846 3.30385L14.696 0.153857C14.5459 0.00370884 14.3201 -0.0412083 14.1239 0.0400519C13.9277 0.121311 13.7998 0.312745 13.7998 0.525087V3.67508Z" fill="white" fill-opacity="0.85"/>
</g>
<g id="g1502">
<path id="path1504 (Stroke)" fill-rule="evenodd" clip-rule="evenodd" d="M3 10.05C3 12.6181 5.14904 14.7 7.8 14.7C10.451 14.7 12.6 12.6181 12.6 10.05C12.6 7.48183 10.451 5.39995 7.8 5.39995C5.14904 5.39995 3 7.48183 3 10.05ZM7.8 13.6666C5.73814 13.6666 4.06667 12.0474 4.06667 10.05C4.06667 8.05253 5.73814 6.43328 7.8 6.43328C9.86186 6.43328 11.5333 8.05253 11.5333 10.05C11.5333 12.0474 9.86186 13.6666 7.8 13.6666Z" fill="white" fill-opacity="0.85"/>
</g>
<g id="g1506">
<path id="path1508 (Stroke)" fill-rule="evenodd" clip-rule="evenodd" d="M5.7002 9.75C5.7002 10.9926 6.70756 12 7.9502 12C9.19283 12 10.2002 10.9926 10.2002 9.75C10.2002 8.50737 9.19283 7.5 7.9502 7.5C6.70756 7.5 5.7002 8.50737 5.7002 9.75ZM7.9502 10.9615C7.28109 10.9615 6.73866 10.4191 6.73866 9.75C6.73866 9.08089 7.28109 8.53846 7.9502 8.53846C8.6193 8.53846 9.16173 9.08089 9.16173 9.75C9.16173 10.4191 8.6193 10.9615 7.9502 10.9615Z" fill="white" fill-opacity="0.85"/>
</g>
<g id="g1510">
<path id="path1512 (Stroke)" fill-rule="evenodd" clip-rule="evenodd" d="M4.93944 13.7922C5.22596 13.8433 5.49699 13.6365 5.54482 13.3304C5.6696 12.5317 6.31795 11.9239 7.09874 11.9239H8.5013C9.28206 11.9239 9.93043 12.5317 10.0552 13.3304C10.103 13.6365 10.374 13.8433 10.6605 13.7922C10.9471 13.7411 11.1406 13.4515 11.0927 13.1453C10.8851 11.8159 9.80662 10.7999 8.5013 10.7999H7.09874C5.79337 10.7999 4.71496 11.8159 4.50726 13.1453C4.45943 13.4515 4.65293 13.7411 4.93944 13.7922Z" fill="white" fill-opacity="0.85"/>
</g>
<g id="g1514">
<path id="path1516 (Stroke)" fill-rule="evenodd" clip-rule="evenodd" d="M6.2998 3.75007C6.2998 3.9986 6.53486 4.20007 6.8248 4.20007H12.0748C12.3648 4.20007 12.5998 3.9986 12.5998 3.75007C12.5998 3.50155 12.3648 3.30007 12.0748 3.30007H6.8248C6.53486 3.30007 6.2998 3.50155 6.2998 3.75007Z" fill="white" fill-opacity="0.85"/>
</g>
<g id="g1518">
<path id="path1520 (Stroke)" fill-rule="evenodd" clip-rule="evenodd" d="M12 14.25C12 14.4985 12.2381 14.7 12.5318 14.7H15.3682C15.6619 14.7 15.9 14.4985 15.9 14.25C15.9 14.0014 15.6619 13.8 15.3682 13.8H12.5318C12.2381 13.8 12 14.0014 12 14.25Z" fill="white" fill-opacity="0.85"/>
</g>
<g id="g1522">
<path id="path1524 (Stroke)" fill-rule="evenodd" clip-rule="evenodd" d="M7.2002 5.85005C7.2002 6.09858 7.44163 6.30005 7.73945 6.30005H15.3609C15.6588 6.30005 15.9002 6.09858 15.9002 5.85005C15.9002 5.60152 15.6588 5.40005 15.3609 5.40005H7.73945C7.44163 5.40005 7.2002 5.60152 7.2002 5.85005Z" fill="white" fill-opacity="0.85"/>
</g>
<g id="g1526">
<path id="path1528 (Stroke)" fill-rule="evenodd" clip-rule="evenodd" d="M11.0996 7.95002C11.0996 8.19855 11.3331 8.40002 11.6211 8.40002H15.3781C15.6661 8.40002 15.8996 8.19855 15.8996 7.95002C15.8996 7.7015 15.6661 7.50002 15.3781 7.50002H11.6211C11.3331 7.50002 11.0996 7.7015 11.0996 7.95002Z" fill="white" fill-opacity="0.85"/>
</g>
<g id="g1530">
<path id="path1532 (Stroke)" fill-rule="evenodd" clip-rule="evenodd" d="M11.4004 10.05C11.4004 10.2985 11.6481 10.5 11.9537 10.5H15.3471C15.6527 10.5 15.9004 10.2985 15.9004 10.05C15.9004 9.80147 15.6527 9.6 15.3471 9.6H11.9537C11.6481 9.6 11.4004 9.80147 11.4004 10.05Z" fill="white" fill-opacity="0.85"/>
</g>
<g id="g1534">
<path id="path1536 (Stroke)" fill-rule="evenodd" clip-rule="evenodd" d="M11.0996 12.15C11.0996 12.3985 11.3331 12.6 11.6211 12.6H15.3781C15.6661 12.6 15.8996 12.3985 15.8996 12.15C15.8996 11.9014 15.6661 11.7 15.3781 11.7H11.6211C11.3331 11.7 11.0996 11.9014 11.0996 12.15Z" fill="white" fill-opacity="0.85"/>
</g>
<g id="g1538">
<path id="path1540 (Stroke)" fill-rule="evenodd" clip-rule="evenodd" d="M5.43866 16.9412C5.34093 16.9412 5.26173 16.8622 5.26173 16.7647V14.6621C5.26173 14.3697 5.0241 14.1327 4.73096 14.1327C4.43783 14.1327 4.2002 14.3697 4.2002 14.6621V16.7647C4.2002 17.447 4.75466 18 5.43866 18H16.7617C17.4457 18 18.0002 17.447 18.0002 16.7647V3.70588C18.0002 3.56547 17.9443 3.43082 17.8447 3.33153L14.6601 0.15506C14.5606 0.0557766 14.4256 0 14.2848 0H5.43866C4.75466 0 4.2002 0.553049 4.2002 1.23529V7.17978C4.2002 7.47216 4.43783 7.70919 4.73096 7.70919C5.0241 7.70919 5.26173 7.47216 5.26173 7.17978V1.23529C5.26173 1.13782 5.34093 1.05882 5.43866 1.05882H14.065L16.9387 3.92517V16.7647C16.9387 16.8622 16.8595 16.9412 16.7617 16.9412H5.43866Z" fill="white" fill-opacity="0.85"/>
</g>
<g id="g1542">
<path id="path1544 (Stroke)" fill-rule="evenodd" clip-rule="evenodd" d="M1.95658 16.7898C1.75044 16.9959 1.41626 16.9959 1.21018 16.7898C1.00406 16.5837 1.00406 16.2495 1.21018 16.0434L4.6526 12.601C4.85872 12.3949 4.85872 12.0607 4.6526 11.8546C4.44648 11.6485 4.1123 11.6485 3.90619 11.8546L0.463769 15.297C-0.15459 15.9154 -0.15459 16.9179 0.463769 17.5363C1.0821 18.1546 2.08463 18.1546 2.70298 17.5363L2.703 17.5363L6.14541 14.0938C6.35153 13.8877 6.35153 13.5535 6.14541 13.3474C5.93929 13.1413 5.60511 13.1413 5.399 13.3474L1.9566 16.7898C1.95659 16.7898 1.95659 16.7898 1.95658 16.7898Z" fill="white" fill-opacity="0.85"/>
</g>
</g>
</g>
</g>
</g>
</g>
</svg>
