<svg width="18" height="19" viewBox="0 0 18 19" fill="none" xmlns="http://www.w3.org/2000/svg">
<g id="Group">
<path id="Vector (Stroke)" fill-rule="evenodd" clip-rule="evenodd" d="M1.49518 10.5171C1.49518 10.2258 1.73128 9.98975 2.02252 9.98975H5.91629C6.08314 9.98975 6.24015 10.0687 6.33963 10.2027C6.43912 10.3366 6.46935 10.5097 6.42114 10.6695C6.34702 10.915 6.30698 11.1761 6.30698 11.4474C6.30698 12.9335 7.5139 14.1405 9.00002 14.1405C10.4861 14.1405 11.693 12.9336 11.6931 11.4475M2.54987 11.0444V11.9122L3.59581 12.0429C3.82035 12.071 4.00196 12.2392 4.04714 12.4609C4.1781 13.1037 4.43135 13.7024 4.78182 14.2318C4.90677 14.4205 4.89733 14.6679 4.75835 14.8466L4.11042 15.6797L4.76774 16.337L5.60079 15.6891C5.77945 15.5501 6.02686 15.5406 6.21561 15.6656C6.74514 16.0161 7.34382 16.2693 7.98652 16.4003C8.20824 16.4455 8.37641 16.6271 8.40448 16.8516L8.53521 17.8975H9.46478L9.59549 16.8516C9.62355 16.6271 9.79175 16.4454 10.0135 16.4003C10.6562 16.2694 11.2549 16.0161 11.7843 15.6656C11.973 15.5406 12.2205 15.5501 12.3991 15.6891L13.2322 16.337L13.8895 15.6797L13.2416 14.8466C13.1026 14.668 13.0932 14.4205 13.2181 14.2318C13.5686 13.7023 13.8218 13.1036 13.9528 12.4609C13.998 12.2392 14.1796 12.071 14.4042 12.0429L15.4501 11.9122V11.0444H12.7262C12.7404 11.1769 12.7477 11.3114 12.7477 11.4474V11.4474C12.7477 13.516 11.0686 15.1952 9.00002 15.1952C6.93142 15.1952 5.25229 13.516 5.25229 11.4474C5.25229 11.3114 5.25957 11.1769 5.27378 11.0444H2.54987ZM11.6603 10.2027C11.7598 10.0687 11.9168 9.98975 12.0837 9.98975H15.9774C16.2687 9.98975 16.5048 10.2258 16.5048 10.5171V12.3777C16.5048 12.6437 16.3067 12.868 16.0428 12.901L14.898 13.0441C14.7598 13.5551 14.5569 14.0396 14.2989 14.4881L15.0079 15.3996C15.1712 15.6095 15.1526 15.9082 14.9645 16.0963L13.6488 17.412C13.4608 17.6 13.1621 17.6186 12.9522 17.4553L12.0406 16.7464C11.5922 17.0044 11.1077 17.2073 10.5967 17.3455L10.4536 18.4903C10.4206 18.7542 10.1963 18.9522 9.93032 18.9522H8.06968C7.80372 18.9522 7.57939 18.7542 7.54641 18.4903L7.40331 17.3455C6.89227 17.2072 6.40782 17.0044 5.95932 16.7463L5.04779 17.4553C4.83787 17.6186 4.5392 17.6 4.35115 17.412L3.03546 16.0963C2.8474 15.9082 2.82881 15.6095 2.99209 15.3996L3.70105 14.4881C3.44302 14.0396 3.24015 13.5552 3.10193 13.0441L1.95712 12.901C1.69322 12.868 1.49518 12.6437 1.49518 12.3777V10.5171M11.6603 10.2027C11.5608 10.3366 11.5306 10.5097 11.5788 10.6695L11.6603 10.2027ZM11.5788 10.6695C11.653 10.915 11.693 11.1761 11.6931 11.4474L11.5788 10.6695Z" fill="white" fill-opacity="0.75"/>
<path id="Vector (Stroke)_2" fill-rule="evenodd" clip-rule="evenodd" d="M5.4114 10.3647C5.4786 10.1421 5.6837 9.98975 5.91625 9.98975H12.0837C12.3163 9.98975 12.5214 10.1421 12.5886 10.3647C12.6922 10.7081 12.7477 11.0718 12.7477 11.4474C12.7477 13.516 11.0686 15.1952 8.99998 15.1952C6.93138 15.1952 5.25226 13.516 5.25226 11.4474C5.25226 11.0718 5.30777 10.7081 5.4114 10.3647ZM6.33688 11.0444C6.31718 11.1757 6.30695 11.3103 6.30695 11.4474C6.30695 12.9335 7.51387 14.1405 8.99998 14.1405C10.4861 14.1405 11.693 12.9335 11.693 11.4474C11.693 11.3102 11.6828 11.1757 11.6631 11.0444H6.33688Z" fill="white" fill-opacity="0.75"/>
<path id="Vector (Stroke)_3" fill-rule="evenodd" clip-rule="evenodd" d="M1.13994 7.58946C1.18924 7.34296 1.40567 7.16553 1.65705 7.16553H16.343C16.5944 7.16553 16.8108 7.34296 16.8601 7.58946L17.4249 10.4137C17.4559 10.5686 17.4158 10.7293 17.3156 10.8514C17.2155 10.9736 17.0658 11.0445 16.9078 11.0445H1.09223C0.934241 11.0445 0.784576 10.9736 0.684413 10.8514C0.58425 10.7293 0.544142 10.5686 0.575125 10.4137L1.13994 7.58946ZM2.08937 8.22021L1.73548 9.98977H16.2646L15.9107 8.22021H2.08937Z" fill="white" fill-opacity="0.75"/>
<path id="Vector (Stroke)_4" fill-rule="evenodd" clip-rule="evenodd" d="M0 10.5171C0 10.2258 0.2361 9.98975 0.527344 9.98975H17.4727C17.7639 9.98975 18 10.2258 18 10.5171C18 10.8083 17.7639 11.0444 17.4727 11.0444H0.527344C0.2361 11.0444 0 10.8083 0 10.5171Z" fill="white" fill-opacity="0.75"/>
<path id="Vector (Stroke)_5" fill-rule="evenodd" clip-rule="evenodd" d="M6.77814 1.47949C6.77814 1.18825 7.01424 0.952148 7.30548 0.952148H10.6945C10.9858 0.952148 11.2219 1.18825 11.2219 1.47949V3.73888C11.2219 4.03012 10.9858 4.26622 10.6945 4.26622C10.4033 4.26622 10.1672 4.03012 10.1672 3.73888V2.00684H7.83282V3.73888C7.83282 4.03012 7.59672 4.26622 7.30548 4.26622C7.01424 4.26622 6.77814 4.03012 6.77814 3.73888V1.47949Z" fill="white" fill-opacity="0.75"/>
<path id="Vector (Stroke)_6" fill-rule="evenodd" clip-rule="evenodd" d="M7.81609 2.12632C7.88878 2.40835 7.71908 2.6959 7.43705 2.76859C5.27384 3.32614 3.56199 5.01543 2.9715 7.16512H15.0284C14.4379 5.01543 12.7261 3.32614 10.5629 2.76859C10.2808 2.6959 10.1111 2.40835 10.1838 2.12632C10.2565 1.8443 10.5441 1.67459 10.8261 1.74729C13.5917 2.46009 15.7247 4.75228 16.2042 7.60505C16.2299 7.75804 16.187 7.9146 16.0868 8.03305C15.9866 8.15149 15.8393 8.21981 15.6842 8.21981H2.31574C2.1606 8.21981 2.01333 8.15149 1.91313 8.03305C1.81293 7.9146 1.76997 7.75804 1.79569 7.60505C2.27523 4.75228 4.40823 2.46009 7.17381 1.74729C7.45584 1.67459 7.74339 1.8443 7.81609 2.12632Z" fill="white" fill-opacity="0.75"/>
</g>
</svg>
