<svg version="1.0" xmlns="http://www.w3.org/2000/svg"
 width="512.000000pt" height="512.000000pt" viewBox="0 0 512.000000 512.000000"
 preserveAspectRatio="xMidYMid meet">

<g transform="translate(0.000000,512.000000) scale(0.100000,-0.100000)"
fill="#f44336" stroke="none">
<path d="M2390 5110 c-1027 -64 -1933 -764 -2255 -1745 -91 -276 -126 -502
-126 -805 0 -303 35 -529 126 -805 250 -760 860 -1370 1620 -1620 276 -91 502
-126 805 -126 303 0 529 35 805 126 760 250 1370 860 1620 1620 91 276 126
502 126 805 0 132 -5 248 -16 325 -76 571 -326 1078 -729 1481 -524 524 -1231
790 -1976 744z m415 -721 c245 -30 529 -132 730 -263 l70 -45 -1281 -1281
-1280 -1282 -42 64 c-121 187 -214 433 -258 683 -22 123 -25 417 -5 550 88
604 461 1124 1002 1396 327 164 687 224 1064 178z m1313 -851 c121 -187 214
-434 258 -683 22 -123 25 -417 5 -550 -58 -402 -237 -760 -521 -1045 -285
-284 -643 -463 -1045 -521 -133 -20 -427 -17 -550 5 -250 44 -496 137 -683
258 l-64 41 1279 1279 c703 703 1279 1278 1279 1278 1 0 20 -28 42 -62z"/>
</g>
</svg>