<svg version="1.0" xmlns="http://www.w3.org/2000/svg"
 width="512.000000pt" height="512.000000pt" viewBox="0 0 512.000000 512.000000"
 preserveAspectRatio="xMidYMid meet">

<g transform="translate(0.000000,512.000000) scale(0.100000,-0.100000)"
fill="#000000" stroke="none">
<path d="M2488 5099 c-23 -12 -46 -35 -58 -59 -19 -38 -20 -58 -20 -552 0
-572 -2 -558 69 -605 71 -48 175 -20 213 57 16 32 18 80 18 548 0 494 -1 514
-20 552 -37 73 -127 99 -202 59z"/>
<path d="M1293 4780 c-56 -25 -83 -70 -83 -135 1 -47 16 -77 249 -480 137
-236 261 -442 275 -457 15 -15 45 -32 66 -38 113 -30 221 87 177 191 -15 36
-491 864 -511 888 -14 18 -85 51 -111 51 -11 0 -39 -9 -62 -20z"/>
<path d="M3705 4781 c-22 -10 -45 -24 -51 -32 -20 -24 -496 -852 -511 -888
-44 -104 64 -221 177 -191 21 6 51 23 66 38 14 15 138 221 275 457 233 403
248 433 249 480 0 65 -27 110 -83 135 -52 24 -71 24 -122 1z"/>
<path d="M389 3887 c-21 -14 -41 -41 -53 -69 -17 -41 -18 -53 -7 -87 6 -23 22
-52 34 -65 25 -28 842 -503 900 -523 119 -42 231 83 179 200 -23 51 3 35 -553
356 -343 197 -370 211 -416 211 -35 0 -60 -7 -84 -23z"/>
<path d="M4240 3704 c-573 -331 -539 -310 -562 -361 -52 -117 60 -242 179
-200 58 20 875 495 900 523 12 13 28 42 34 65 11 34 10 46 -7 87 -26 63 -70
92 -138 92 -48 -1 -72 -13 -406 -206z"/>
<path d="M78 2689 c-43 -22 -78 -81 -78 -129 0 -50 35 -107 80 -130 38 -19 58
-20 552 -20 468 0 516 2 548 18 107 53 107 211 0 264 -32 16 -79 18 -550 18
-493 -1 -517 -2 -552 -21z"/>
<path d="M3940 2692 c-50 -25 -80 -75 -80 -132 0 -57 30 -107 80 -132 32 -16
80 -18 548 -18 494 0 514 1 552 20 45 23 80 80 80 130 0 50 -35 107 -80 130
-38 19 -58 20 -552 20 -468 0 -516 -2 -548 -18z"/>
<path d="M1255 1977 c-77 -35 -873 -501 -892 -523 -12 -13 -28 -42 -34 -65
-11 -34 -10 -46 7 -87 28 -67 73 -95 144 -90 51 4 89 24 480 250 234 135 437
257 451 270 40 36 55 95 38 149 -26 79 -124 127 -194 96z"/>
<path d="M3772 1983 c-40 -8 -99 -73 -106 -119 -9 -51 15 -117 53 -143 14 -10
215 -128 446 -261 386 -224 424 -244 475 -248 71 -5 116 23 144 90 17 41 18
53 7 87 -6 23 -22 52 -34 65 -21 24 -827 494 -894 522 -32 14 -48 15 -91 7z"/>
<path d="M1774 1441 c-48 -22 -35 -2 -353 -552 -196 -340 -211 -370 -211 -415
0 -31 7 -61 20 -81 45 -75 158 -90 224 -30 24 21 495 828 523 896 38 89 -45
202 -147 201 -8 0 -34 -9 -56 -19z"/>
<path d="M3233 1449 c-17 -5 -45 -26 -62 -46 -37 -45 -47 -98 -28 -144 14 -35
394 -696 474 -827 49 -80 85 -105 148 -105 86 0 145 59 145 147 0 45 -15 75
-211 415 -318 550 -305 530 -353 552 -45 20 -65 22 -113 8z"/>
<path d="M2479 1237 c-71 -47 -69 -33 -69 -605 0 -494 1 -514 20 -552 23 -45
80 -80 130 -80 50 0 107 35 130 80 19 38 20 58 20 552 0 468 -2 516 -18 548
-25 50 -75 80 -132 80 -32 0 -58 -7 -81 -23z"/>
</g>
</svg>